# xmcd CD database file
#
# Track frame offsets:
#	150
#	23261
#	39701
#	67359
#	89695
#	112396
#	132469
#	150459
#	177777
#	200278
#
# Disc length: 2944 seconds
#
# Revision: 0
# Processed by: cddbd v1.5PL3 Copyright (c) Steve Scherf et al.
# Submitted via: CDex 1.50
#
DISCID=8c0b7e0a
DTITLE=Various Artist - Jazz for Toddlers I
DYEAR=2000
DGENRE=Jazz
TTITLE0=The Ants Go Marching One By One
TTITLE1=Tainga Layo
TTITLE2=Waltzing Matilda
TTITLE3=Pop Goes The Weasel
TTITLE4=Three Blind Mice
TTITLE5=Did You Ever See A Lassie?
TTITLE6=She'll Be Coming 'Round The Mountain
TTITLE7=On Susannah
TTITLE8=Over The River And Through The Woods
TTITLE9=Rock-A-Bye Baby
EXTD=YEAR: 2000
EXTT0=
EXTT1=
EXTT2=
EXTT3=
EXTT4=
EXTT5=
EXTT6=
EXTT7=
EXTT8=
EXTT9=
PLAYORDER=
